<svg xmlns="http://www.w3.org/2000/svg" viewBox="0 0 1600 1200" width="1600" height="1200">
  <!-- Background Blueprint Paper -->
  <rect width="1600" height="1200" fill="#0a121e" />
  
  <!-- Grid Pattern -->
  <defs>
    <pattern id="cad_grid" width="40" height="40" patternUnits="userSpaceOnUse">
      <path d="M 40 0 L 0 0 0 40" fill="none" stroke="#14263c" stroke-width="1" />
    </pattern>
  </defs>
  <rect width="1600" height="1200" fill="url(#cad_grid)" />

  <!-- Outer Border & Title Block -->
  <rect x="20" y="20" width="1560" height="1160" fill="none" stroke="#00e5ff" stroke-width="2" opacity="0.6" />
  <line x1="800" y1="20" x2="800" y2="1140" stroke="#00e5ff" stroke-width="1.5" stroke-dasharray="6,6" opacity="0.4" />
  <line x1="20" y1="580" x2="1580" y2="580" stroke="#00e5ff" stroke-width="1.5" stroke-dasharray="6,6" opacity="0.4" />

  <!-- Title Block Bottom Right -->
  <rect x="1180" y="1080" width="380" height="80" fill="#0d1b2a" stroke="#00e5ff" stroke-width="1.5" />
  <text x="1200" y="1110" font-family="monospace" font-size="16" font-weight="bold" fill="#00e5ff">OBSERVED 2 CAD BLUEPRINT</text>
  <text x="1200" y="1132" font-family="monospace" font-size="13" fill="#ffb703">7-HEX SOLID CORE TOWER (3 LEVELS / 24M)</text>
  <text x="1200" y="1150" font-family="monospace" font-size="11" fill="#8d99ae">SCALE: 1:100 | METRIC | VERIFIED GREEN</text>

  <!-- QUADRANT 1: TOP PLAN VIEW (Z-Down) -->
  <g transform="translate(50, 50)">
    <text x="20" y="30" font-family="monospace" font-size="18" font-weight="bold" fill="#00e5ff">1. TOP PLAN VIEW (LOOKING DOWN Z-AXIS)</text>
    <text x="20" y="50" font-family="monospace" font-size="12" fill="#8d99ae">7-Hex Footprint | Central Solid Core Column (Filled) + 6 Winding Perimeter Ramps</text>
    
    <!-- Central Core Hex -->
    <polygon points="380,240 430,270 430,330 380,360 330,330 330,270" fill="#00e5ff" fill-opacity="0.25" stroke="#00e5ff" stroke-width="2.5" />
    <text x="350" y="305" font-family="monospace" font-size="11" font-weight="bold" fill="#00e5ff">SOLID CORE</text>

    <!-- 6 Perimeter Hexes -->
    <!-- East -->
    <polygon points="480,240 530,270 530,330 480,360 430,330 430,270" fill="none" stroke="#ffb703" stroke-width="2" />
    <!-- SE -->
    <polygon points="430,330 480,360 480,420 430,450 380,420 380,360" fill="none" stroke="#ffb703" stroke-width="2" />
    <!-- SW -->
    <polygon points="330,330 380,360 380,420 330,450 280,420 280,360" fill="none" stroke="#ffb703" stroke-width="2" />
    <!-- West -->
    <polygon points="280,240 330,270 330,330 280,360 230,330 230,270" fill="none" stroke="#ffb703" stroke-width="2" />
    <!-- NW -->
    <polygon points="330,150 380,180 380,240 330,270 280,240 280,180" fill="none" stroke="#ffb703" stroke-width="2" />
    <!-- NE -->
    <polygon points="430,150 480,180 480,240 430,270 380,240 380,180" fill="none" stroke="#ffb703" stroke-width="2" />

    <!-- Ramp Spiral Directional Path Arrow -->
    <path d="M 260 300 Q 300 420 380 420 Q 460 420 460 300 Q 460 180 380 180 Q 300 180 300 260" fill="none" stroke="#ff007f" stroke-width="3" stroke-dasharray="5,5" />
    <text x="490" y="210" font-family="monospace" font-size="12" fill="#ff007f">360° RAMP SPIRAL</text>
  </g>

  <!-- QUADRANT 2: FRONT ELEVATION VIEW (X-Look) -->
  <g transform="translate(850, 50)">
    <text x="20" y="30" font-family="monospace" font-size="18" font-weight="bold" fill="#00e5ff">2. FRONT ELEVATION VIEW (X-LOOK)</text>
    <text x="20" y="50" font-family="monospace" font-size="12" fill="#8d99ae">3 Elevation Levels (Z: 0m, Z: 8m, Z: 16m -> 24m) | Floor Slabs &amp; Sloped Decks</text>
    
    <!-- Central Pillar Column -->
    <rect x="330" y="100" width="100" height="400" fill="#00e5ff" fill-opacity="0.15" stroke="#00e5ff" stroke-width="2" stroke-dasharray="4,4" />
    <text x="340" y="300" font-family="monospace" font-size="12" fill="#00e5ff">SOLID CORE</text>

    <!-- Level Slabs -->
    <line x1="100" y1="500" x2="660" y2="500" stroke="#00e5ff" stroke-width="3" />
    <text x="30" y="505" font-family="monospace" font-size="12" fill="#00e5ff">Z: 0.0m (L0)</text>

    <line x1="100" y1="366" x2="660" y2="366" stroke="#00e5ff" stroke-width="2" stroke-dasharray="4,4" />
    <text x="30" y="371" font-family="monospace" font-size="12" fill="#00e5ff">Z: 8.0m (L1)</text>

    <line x1="100" y1="233" x2="660" y2="233" stroke="#00e5ff" stroke-width="2" stroke-dasharray="4,4" />
    <text x="30" y="238" font-family="monospace" font-size="12" fill="#00e5ff">Z: 16.0m (L2)</text>

    <line x1="100" y1="100" x2="660" y2="100" stroke="#00e5ff" stroke-width="3" />
    <text x="30" y="105" font-family="monospace" font-size="12" fill="#00e5ff">Z: 24.0m (TOP)</text>

    <!-- Continuous Sloped Ramp Lines -->
    <line x1="150" y1="500" x2="330" y2="433" stroke="#ffb703" stroke-width="3" />
    <line x1="430" y1="433" x2="610" y2="366" stroke="#ffb703" stroke-width="3" />
    <line x1="610" y1="366" x2="430" y2="300" stroke="#ffb703" stroke-width="3" />
    <line x1="330" y1="300" x2="150" y2="233" stroke="#ffb703" stroke-width="3" />
    <line x1="150" y1="233" x2="330" y2="166" stroke="#ffb703" stroke-width="3" />
    <line x1="430" y1="166" x2="610" y2="100" stroke="#ffb703" stroke-width="3" />
  </g>

  <!-- QUADRANT 3: SIDE CROSS-SECTION VIEW (Y-Look) -->
  <g transform="translate(50, 610)">
    <text x="20" y="30" font-family="monospace" font-size="18" font-weight="bold" fill="#00e5ff">3. SIDE CROSS-SECTION VIEW (Y-LOOK)</text>
    <text x="20" y="50" font-family="monospace" font-size="12" fill="#8d99ae">Section Profile | Inner-Wall Ramp Attachment to Central Pillar Wall</text>
    
    <!-- Central Pillar Solid Cross Section -->
    <rect x="330" y="100" width="100" height="400" fill="#00e5ff" fill-opacity="0.30" stroke="#00e5ff" stroke-width="2.5" />
    <text x="340" y="300" font-family="monospace" font-size="12" font-weight="bold" fill="#00e5ff">SOLID CORE</text>

    <!-- Left & Right Ramp Flanges -->
    <path d="M 150 480 L 330 400 L 330 420 L 150 500 Z" fill="#ffb703" fill-opacity="0.4" stroke="#ffb703" stroke-width="2" />
    <path d="M 430 400 L 610 320 L 610 340 L 430 420 Z" fill="#ffb703" fill-opacity="0.4" stroke="#ffb703" stroke-width="2" />
    <path d="M 150 220 L 330 140 L 330 160 L 150 240 Z" fill="#ffb703" fill-opacity="0.4" stroke="#ffb703" stroke-width="2" />

    <text x="180" y="440" font-family="monospace" font-size="11" fill="#ffb703">INNER RAMP WEDGE</text>
    <text x="450" y="360" font-family="monospace" font-size="11" fill="#ffb703">INNER RAMP WEDGE</text>
  </g>

  <!-- QUADRANT 4: 3D ISOMETRIC AXONOMETRIC VIEW -->
  <g transform="translate(850, 610)">
    <text x="20" y="30" font-family="monospace" font-size="18" font-weight="bold" fill="#00e5ff">4. 3D ISOMETRIC AXONOMETRIC VIEW (30°/30°)</text>
    <text x="20" y="50" font-family="monospace" font-size="12" fill="#8d99ae">Spatial Isometric Projection | 7-Hex Solid Core &amp; Winding Perimeter Ramp</text>
    
    <!-- Isometric Central Pillar -->
    <path d="M 380 180 L 460 220 L 460 440 L 380 400 Z" fill="#00e5ff" fill-opacity="0.25" stroke="#00e5ff" stroke-width="2" />
    <path d="M 380 180 L 300 220 L 300 440 L 380 400 Z" fill="#00e5ff" fill-opacity="0.35" stroke="#00e5ff" stroke-width="2" />
    <path d="M 380 140 L 460 180 L 380 220 L 300 180 Z" fill="#00e5ff" fill-opacity="0.45" stroke="#00e5ff" stroke-width="2" />
    <text x="345" y="185" font-family="monospace" font-size="11" font-weight="bold" fill="#ffffff">SOLID CORE</text>

    <!-- Winding Isometric Spiral Helix Line -->
    <path d="M 220 440 C 220 480 540 480 540 380 C 540 280 220 320 220 220 C 220 160 540 180 540 120" fill="none" stroke="#ff007f" stroke-width="3.5" />
    <text x="450" y="290" font-family="monospace" font-size="12" font-weight="bold" fill="#ff007f">INNER-WALL RAMP HELIX</text>
  </g>
</svg>
