<svg xmlns="http://www.w3.org/2000/svg" viewBox="0 0 1600 1200" width="1600" height="1200">
  <!-- Background Blueprint Paper -->
  <rect width="1600" height="1200" fill="#0a121e" />
  
  <!-- Grid Pattern -->
  <defs>
    <pattern id="cad_grid" width="40" height="40" patternUnits="userSpaceOnUse">
      <path d="M 40 0 L 0 0 0 40" fill="none" stroke="#14263c" stroke-width="1" />
    </pattern>
  </defs>
  <rect width="1600" height="1200" fill="url(#cad_grid)" />

  <!-- Outer Border & Division Lines -->
  <rect x="20" y="20" width="1560" height="1160" fill="none" stroke="#00e5ff" stroke-width="2" opacity="0.6" />
  <line x1="800" y1="20" x2="800" y2="1140" stroke="#00e5ff" stroke-width="1.5" stroke-dasharray="6,6" opacity="0.4" />
  <line x1="20" y1="580" x2="1580" y2="580" stroke="#00e5ff" stroke-width="1.5" stroke-dasharray="6,6" opacity="0.4" />

  <!-- Title Block Bottom Right -->
  <rect x="1080" y="1060" width="480" height="100" fill="#0d1b2a" stroke="#00e5ff" stroke-width="1.5" />
  <text x="1100" y="1088" font-family="monospace" font-size="16" font-weight="bold" fill="#00e5ff">OBSERVED 2 CAD BLUEPRINT: authored/silo_ring_bridge</text>
  <text x="1100" y="1110" font-family="monospace" font-size="12" fill="#ffb703">ARCHETYPE: silo_ring_bridge | KIND: Cell | FOOTPRINT CELLS: 1</text>
  <text x="1100" y="1130" font-family="monospace" font-size="11" fill="#8d99ae">HULLS: 12 | VERTICES: 92 | BOUNDS: 14.00m x 8.00m x 16.00m</text>
  <text x="1100" y="1148" font-family="monospace" font-size="11" font-weight="bold" fill="#00ff88">STATUS: VERIFIED GREEN | LEGIBILITY CONTRACT PASSED</text>
  <!-- QUADRANT 1: 1. TOP PLAN VIEW (LOOKING DOWN Y-AXIS / XZ PLANE) -->
  <g transform="translate(0, 0)">
    <text x="50" y="50" font-family="monospace" font-size="16" font-weight="bold" fill="#00e5ff">1. TOP PLAN VIEW (LOOKING DOWN Y-AXIS / XZ PLANE)</text>
    <polygon points="190.0,420.0 610.0,420.0 400.0,540.0" fill="#00e5ff" fill-opacity="0.2" stroke="#00e5ff" stroke-width="1.5" />
    <circle cx="190.0" cy="420.0" r="2.5" fill="#00e5ff" />
    <circle cx="190.0" cy="420.0" r="2.5" fill="#00e5ff" />
    <circle cx="400.0" cy="540.0" r="2.5" fill="#00e5ff" />
    <circle cx="400.0" cy="540.0" r="2.5" fill="#00e5ff" />
    <circle cx="610.0" cy="420.0" r="2.5" fill="#00e5ff" />
    <circle cx="610.0" cy="420.0" r="2.5" fill="#00e5ff" />
    <polygon points="190.0,300.0 610.0,420.0 190.0,420.0" fill="#ffb703" fill-opacity="0.2" stroke="#ffb703" stroke-width="1.5" />
    <circle cx="190.0" cy="420.0" r="2.5" fill="#ffb703" />
    <circle cx="190.0" cy="420.0" r="2.5" fill="#ffb703" />
    <circle cx="190.0" cy="300.0" r="2.5" fill="#ffb703" />
    <circle cx="190.0" cy="300.0" r="2.5" fill="#ffb703" />
    <circle cx="610.0" cy="420.0" r="2.5" fill="#ffb703" />
    <circle cx="610.0" cy="420.0" r="2.5" fill="#ffb703" />
    <polygon points="190.0,300.0 610.0,180.0 610.0,420.0" fill="#ff007f" fill-opacity="0.2" stroke="#ff007f" stroke-width="1.5" />
    <circle cx="190.0" cy="300.0" r="2.5" fill="#ff007f" />
    <circle cx="190.0" cy="300.0" r="2.5" fill="#ff007f" />
    <circle cx="610.0" cy="420.0" r="2.5" fill="#ff007f" />
    <circle cx="610.0" cy="420.0" r="2.5" fill="#ff007f" />
    <circle cx="610.0" cy="180.0" r="2.5" fill="#ff007f" />
    <circle cx="610.0" cy="180.0" r="2.5" fill="#ff007f" />
    <polygon points="190.0,180.0 610.0,180.0 190.0,300.0" fill="#00ff88" fill-opacity="0.2" stroke="#00ff88" stroke-width="1.5" />
    <circle cx="190.0" cy="300.0" r="2.5" fill="#00ff88" />
    <circle cx="190.0" cy="300.0" r="2.5" fill="#00ff88" />
    <circle cx="190.0" cy="180.0" r="2.5" fill="#00ff88" />
    <circle cx="190.0" cy="180.0" r="2.5" fill="#00ff88" />
    <circle cx="610.0" cy="180.0" r="2.5" fill="#00ff88" />
    <circle cx="610.0" cy="180.0" r="2.5" fill="#00ff88" />
    <polygon points="190.0,180.0 400.0,60.0 610.0,180.0" fill="#bd00ff" fill-opacity="0.2" stroke="#bd00ff" stroke-width="1.5" />
    <circle cx="190.0" cy="180.0" r="2.5" fill="#bd00ff" />
    <circle cx="190.0" cy="180.0" r="2.5" fill="#bd00ff" />
    <circle cx="400.0" cy="60.0" r="2.5" fill="#bd00ff" />
    <circle cx="400.0" cy="60.0" r="2.5" fill="#bd00ff" />
    <circle cx="610.0" cy="180.0" r="2.5" fill="#bd00ff" />
    <circle cx="610.0" cy="180.0" r="2.5" fill="#bd00ff" />
    <polygon points="384.9,531.4 610.0,402.7 610.0,420.0 400.0,540.0" fill="#00f0ff" fill-opacity="0.2" stroke="#00f0ff" stroke-width="1.5" />
    <circle cx="384.9" cy="531.4" r="2.5" fill="#00f0ff" />
    <circle cx="384.9" cy="531.4" r="2.5" fill="#00f0ff" />
    <circle cx="400.0" cy="540.0" r="2.5" fill="#00f0ff" />
    <circle cx="400.0" cy="540.0" r="2.5" fill="#00f0ff" />
    <circle cx="610.0" cy="420.0" r="2.5" fill="#00f0ff" />
    <circle cx="610.0" cy="420.0" r="2.5" fill="#00f0ff" />
    <circle cx="610.0" cy="402.7" r="2.5" fill="#00f0ff" />
    <circle cx="610.0" cy="402.7" r="2.5" fill="#00f0ff" />
    <polygon points="384.9,68.6 400.0,60.0 610.0,180.0 610.0,197.3" fill="#ff6b6b" fill-opacity="0.2" stroke="#ff6b6b" stroke-width="1.5" />
    <circle cx="384.9" cy="68.6" r="2.5" fill="#ff6b6b" />
    <circle cx="384.9" cy="68.6" r="2.5" fill="#ff6b6b" />
    <circle cx="400.0" cy="60.0" r="2.5" fill="#ff6b6b" />
    <circle cx="400.0" cy="60.0" r="2.5" fill="#ff6b6b" />
    <circle cx="610.0" cy="197.3" r="2.5" fill="#ff6b6b" />
    <circle cx="610.0" cy="197.3" r="2.5" fill="#ff6b6b" />
    <circle cx="610.0" cy="180.0" r="2.5" fill="#ff6b6b" />
    <circle cx="610.0" cy="180.0" r="2.5" fill="#ff6b6b" />
    <polygon points="505.0,232.5 595.0,232.5 595.0,367.5 505.0,367.5" fill="#4ecdc4" fill-opacity="0.2" stroke="#4ecdc4" stroke-width="1.5" />
    <circle cx="505.0" cy="367.5" r="2.5" fill="#4ecdc4" />
    <circle cx="505.0" cy="367.5" r="2.5" fill="#4ecdc4" />
    <circle cx="505.0" cy="232.5" r="2.5" fill="#4ecdc4" />
    <circle cx="505.0" cy="232.5" r="2.5" fill="#4ecdc4" />
    <circle cx="508.8" cy="363.8" r="2.5" fill="#4ecdc4" />
    <circle cx="508.8" cy="236.2" r="2.5" fill="#4ecdc4" />
    <circle cx="591.2" cy="363.8" r="2.5" fill="#4ecdc4" />
    <circle cx="591.2" cy="236.2" r="2.5" fill="#4ecdc4" />
    <circle cx="595.0" cy="367.5" r="2.5" fill="#4ecdc4" />
    <circle cx="595.0" cy="367.5" r="2.5" fill="#4ecdc4" />
    <circle cx="595.0" cy="232.5" r="2.5" fill="#4ecdc4" />
    <circle cx="595.0" cy="232.5" r="2.5" fill="#4ecdc4" />
    <polygon points="595.0,180.0 610.0,180.0 610.0,232.5 595.0,213.8" fill="#00e5ff" fill-opacity="0.2" stroke="#00e5ff" stroke-width="1.5" />
    <circle cx="595.0" cy="213.8" r="2.5" fill="#00e5ff" />
    <circle cx="595.0" cy="213.8" r="2.5" fill="#00e5ff" />
    <circle cx="595.0" cy="180.0" r="2.5" fill="#00e5ff" />
    <circle cx="595.0" cy="180.0" r="2.5" fill="#00e5ff" />
    <circle cx="610.0" cy="232.5" r="2.5" fill="#00e5ff" />
    <circle cx="610.0" cy="232.5" r="2.5" fill="#00e5ff" />
    <circle cx="610.0" cy="180.0" r="2.5" fill="#00e5ff" />
    <circle cx="610.0" cy="180.0" r="2.5" fill="#00e5ff" />
    <polygon points="595.0,386.2 610.0,367.5 610.0,420.0 595.0,420.0" fill="#ffb703" fill-opacity="0.2" stroke="#ffb703" stroke-width="1.5" />
    <circle cx="595.0" cy="420.0" r="2.5" fill="#ffb703" />
    <circle cx="595.0" cy="420.0" r="2.5" fill="#ffb703" />
    <circle cx="595.0" cy="386.2" r="2.5" fill="#ffb703" />
    <circle cx="595.0" cy="386.2" r="2.5" fill="#ffb703" />
    <circle cx="610.0" cy="420.0" r="2.5" fill="#ffb703" />
    <circle cx="610.0" cy="420.0" r="2.5" fill="#ffb703" />
    <circle cx="610.0" cy="367.5" r="2.5" fill="#ffb703" />
    <circle cx="610.0" cy="367.5" r="2.5" fill="#ffb703" />
    <polygon points="595.0,180.0 610.0,180.0 610.0,420.0 595.0,420.0" fill="#ff007f" fill-opacity="0.2" stroke="#ff007f" stroke-width="1.5" />
    <circle cx="595.0" cy="420.0" r="2.5" fill="#ff007f" />
    <circle cx="595.0" cy="420.0" r="2.5" fill="#ff007f" />
    <circle cx="595.0" cy="180.0" r="2.5" fill="#ff007f" />
    <circle cx="595.0" cy="180.0" r="2.5" fill="#ff007f" />
    <circle cx="602.5" cy="420.0" r="2.5" fill="#ff007f" />
    <circle cx="602.5" cy="180.0" r="2.5" fill="#ff007f" />
    <circle cx="610.0" cy="420.0" r="2.5" fill="#ff007f" />
    <circle cx="610.0" cy="420.0" r="2.5" fill="#ff007f" />
    <circle cx="610.0" cy="180.0" r="2.5" fill="#ff007f" />
    <circle cx="610.0" cy="180.0" r="2.5" fill="#ff007f" />
    <polygon points="595.0,180.0 610.0,180.0 610.0,420.0 595.0,420.0" fill="#00ff88" fill-opacity="0.2" stroke="#00ff88" stroke-width="1.5" />
    <circle cx="595.0" cy="420.0" r="2.5" fill="#00ff88" />
    <circle cx="595.0" cy="420.0" r="2.5" fill="#00ff88" />
    <circle cx="595.0" cy="180.0" r="2.5" fill="#00ff88" />
    <circle cx="595.0" cy="180.0" r="2.5" fill="#00ff88" />
    <circle cx="610.0" cy="420.0" r="2.5" fill="#00ff88" />
    <circle cx="610.0" cy="420.0" r="2.5" fill="#00ff88" />
    <circle cx="610.0" cy="180.0" r="2.5" fill="#00ff88" />
    <circle cx="610.0" cy="180.0" r="2.5" fill="#00ff88" />
  </g>
  <!-- QUADRANT 2: 2. FRONT ELEVATION VIEW (XY PLANE) -->
  <g transform="translate(0, 0)">
    <text x="850" y="50" font-family="monospace" font-size="16" font-weight="bold" fill="#00e5ff">2. FRONT ELEVATION VIEW (XY PLANE)</text>
    <polygon points="990.0,405.0 1410.0,391.7 1410.0,420.0 990.0,420.0" fill="#00e5ff" fill-opacity="0.2" stroke="#00e5ff" stroke-width="1.5" />
    <circle cx="990.0" cy="420.0" r="2.5" fill="#00e5ff" />
    <circle cx="990.0" cy="405.0" r="2.5" fill="#00e5ff" />
    <circle cx="1200.0" cy="420.0" r="2.5" fill="#00e5ff" />
    <circle cx="1200.0" cy="405.0" r="2.5" fill="#00e5ff" />
    <circle cx="1410.0" cy="420.0" r="2.5" fill="#00e5ff" />
    <circle cx="1410.0" cy="391.7" r="2.5" fill="#00e5ff" />
    <polygon points="990.0,385.0 1410.0,391.7 1410.0,420.0 990.0,420.0" fill="#ffb703" fill-opacity="0.2" stroke="#ffb703" stroke-width="1.5" />
    <circle cx="990.0" cy="420.0" r="2.5" fill="#ffb703" />
    <circle cx="990.0" cy="405.0" r="2.5" fill="#ffb703" />
    <circle cx="990.0" cy="420.0" r="2.5" fill="#ffb703" />
    <circle cx="990.0" cy="385.0" r="2.5" fill="#ffb703" />
    <circle cx="1410.0" cy="420.0" r="2.5" fill="#ffb703" />
    <circle cx="1410.0" cy="391.7" r="2.5" fill="#ffb703" />
    <polygon points="990.0,385.0 1410.0,378.3 1410.0,420.0 990.0,420.0" fill="#ff007f" fill-opacity="0.2" stroke="#ff007f" stroke-width="1.5" />
    <circle cx="990.0" cy="420.0" r="2.5" fill="#ff007f" />
    <circle cx="990.0" cy="385.0" r="2.5" fill="#ff007f" />
    <circle cx="1410.0" cy="420.0" r="2.5" fill="#ff007f" />
    <circle cx="1410.0" cy="391.7" r="2.5" fill="#ff007f" />
    <circle cx="1410.0" cy="420.0" r="2.5" fill="#ff007f" />
    <circle cx="1410.0" cy="378.3" r="2.5" fill="#ff007f" />
    <polygon points="990.0,365.0 1410.0,378.3 1410.0,420.0 990.0,420.0" fill="#00ff88" fill-opacity="0.2" stroke="#00ff88" stroke-width="1.5" />
    <circle cx="990.0" cy="420.0" r="2.5" fill="#00ff88" />
    <circle cx="990.0" cy="385.0" r="2.5" fill="#00ff88" />
    <circle cx="990.0" cy="420.0" r="2.5" fill="#00ff88" />
    <circle cx="990.0" cy="365.0" r="2.5" fill="#00ff88" />
    <circle cx="1410.0" cy="420.0" r="2.5" fill="#00ff88" />
    <circle cx="1410.0" cy="378.3" r="2.5" fill="#00ff88" />
    <polygon points="990.0,365.0 1200.0,365.0 1410.0,378.3 1410.0,420.0 990.0,420.0" fill="#bd00ff" fill-opacity="0.2" stroke="#bd00ff" stroke-width="1.5" />
    <circle cx="990.0" cy="420.0" r="2.5" fill="#bd00ff" />
    <circle cx="990.0" cy="365.0" r="2.5" fill="#bd00ff" />
    <circle cx="1200.0" cy="420.0" r="2.5" fill="#bd00ff" />
    <circle cx="1200.0" cy="365.0" r="2.5" fill="#bd00ff" />
    <circle cx="1410.0" cy="420.0" r="2.5" fill="#bd00ff" />
    <circle cx="1410.0" cy="378.3" r="2.5" fill="#bd00ff" />
    <polygon points="1184.9,180.0 1410.0,180.0 1410.0,420.0 1184.9,420.0" fill="#00f0ff" fill-opacity="0.2" stroke="#00f0ff" stroke-width="1.5" />
    <circle cx="1184.9" cy="420.0" r="2.5" fill="#00f0ff" />
    <circle cx="1184.9" cy="180.0" r="2.5" fill="#00f0ff" />
    <circle cx="1200.0" cy="420.0" r="2.5" fill="#00f0ff" />
    <circle cx="1200.0" cy="180.0" r="2.5" fill="#00f0ff" />
    <circle cx="1410.0" cy="420.0" r="2.5" fill="#00f0ff" />
    <circle cx="1410.0" cy="180.0" r="2.5" fill="#00f0ff" />
    <circle cx="1410.0" cy="420.0" r="2.5" fill="#00f0ff" />
    <circle cx="1410.0" cy="180.0" r="2.5" fill="#00f0ff" />
    <polygon points="1184.9,180.0 1410.0,180.0 1410.0,420.0 1184.9,420.0" fill="#ff6b6b" fill-opacity="0.2" stroke="#ff6b6b" stroke-width="1.5" />
    <circle cx="1184.9" cy="420.0" r="2.5" fill="#ff6b6b" />
    <circle cx="1184.9" cy="180.0" r="2.5" fill="#ff6b6b" />
    <circle cx="1200.0" cy="420.0" r="2.5" fill="#ff6b6b" />
    <circle cx="1200.0" cy="180.0" r="2.5" fill="#ff6b6b" />
    <circle cx="1410.0" cy="420.0" r="2.5" fill="#ff6b6b" />
    <circle cx="1410.0" cy="180.0" r="2.5" fill="#ff6b6b" />
    <circle cx="1410.0" cy="420.0" r="2.5" fill="#ff6b6b" />
    <circle cx="1410.0" cy="180.0" r="2.5" fill="#ff6b6b" />
    <polygon points="1305.0,378.8 1308.8,375.0 1391.2,375.0 1395.0,378.8 1395.0,420.0 1305.0,420.0" fill="#4ecdc4" fill-opacity="0.2" stroke="#4ecdc4" stroke-width="1.5" />
    <circle cx="1305.0" cy="420.0" r="2.5" fill="#4ecdc4" />
    <circle cx="1305.0" cy="378.8" r="2.5" fill="#4ecdc4" />
    <circle cx="1305.0" cy="420.0" r="2.5" fill="#4ecdc4" />
    <circle cx="1305.0" cy="378.8" r="2.5" fill="#4ecdc4" />
    <circle cx="1308.8" cy="375.0" r="2.5" fill="#4ecdc4" />
    <circle cx="1308.8" cy="375.0" r="2.5" fill="#4ecdc4" />
    <circle cx="1391.2" cy="375.0" r="2.5" fill="#4ecdc4" />
    <circle cx="1391.2" cy="375.0" r="2.5" fill="#4ecdc4" />
    <circle cx="1395.0" cy="420.0" r="2.5" fill="#4ecdc4" />
    <circle cx="1395.0" cy="378.8" r="2.5" fill="#4ecdc4" />
    <circle cx="1395.0" cy="420.0" r="2.5" fill="#4ecdc4" />
    <circle cx="1395.0" cy="378.8" r="2.5" fill="#4ecdc4" />
    <polygon points="1395.0,240.0 1410.0,240.0 1410.0,420.0 1395.0,420.0" fill="#00e5ff" fill-opacity="0.2" stroke="#00e5ff" stroke-width="1.5" />
    <circle cx="1395.0" cy="420.0" r="2.5" fill="#00e5ff" />
    <circle cx="1395.0" cy="240.0" r="2.5" fill="#00e5ff" />
    <circle cx="1395.0" cy="420.0" r="2.5" fill="#00e5ff" />
    <circle cx="1395.0" cy="240.0" r="2.5" fill="#00e5ff" />
    <circle cx="1410.0" cy="420.0" r="2.5" fill="#00e5ff" />
    <circle cx="1410.0" cy="240.0" r="2.5" fill="#00e5ff" />
    <circle cx="1410.0" cy="420.0" r="2.5" fill="#00e5ff" />
    <circle cx="1410.0" cy="240.0" r="2.5" fill="#00e5ff" />
    <polygon points="1395.0,240.0 1410.0,240.0 1410.0,420.0 1395.0,420.0" fill="#ffb703" fill-opacity="0.2" stroke="#ffb703" stroke-width="1.5" />
    <circle cx="1395.0" cy="420.0" r="2.5" fill="#ffb703" />
    <circle cx="1395.0" cy="240.0" r="2.5" fill="#ffb703" />
    <circle cx="1395.0" cy="420.0" r="2.5" fill="#ffb703" />
    <circle cx="1395.0" cy="240.0" r="2.5" fill="#ffb703" />
    <circle cx="1410.0" cy="420.0" r="2.5" fill="#ffb703" />
    <circle cx="1410.0" cy="240.0" r="2.5" fill="#ffb703" />
    <circle cx="1410.0" cy="420.0" r="2.5" fill="#ffb703" />
    <circle cx="1410.0" cy="240.0" r="2.5" fill="#ffb703" />
    <polygon points="1395.0,180.0 1410.0,180.0 1410.0,240.0 1402.5,240.0 1395.0,225.0" fill="#ff007f" fill-opacity="0.2" stroke="#ff007f" stroke-width="1.5" />
    <circle cx="1395.0" cy="225.0" r="2.5" fill="#ff007f" />
    <circle cx="1395.0" cy="180.0" r="2.5" fill="#ff007f" />
    <circle cx="1395.0" cy="225.0" r="2.5" fill="#ff007f" />
    <circle cx="1395.0" cy="180.0" r="2.5" fill="#ff007f" />
    <circle cx="1402.5" cy="240.0" r="2.5" fill="#ff007f" />
    <circle cx="1402.5" cy="240.0" r="2.5" fill="#ff007f" />
    <circle cx="1410.0" cy="240.0" r="2.5" fill="#ff007f" />
    <circle cx="1410.0" cy="180.0" r="2.5" fill="#ff007f" />
    <circle cx="1410.0" cy="240.0" r="2.5" fill="#ff007f" />
    <circle cx="1410.0" cy="180.0" r="2.5" fill="#ff007f" />
    <polygon points="1395.0,375.0 1410.0,375.0 1410.0,420.0 1395.0,420.0" fill="#00ff88" fill-opacity="0.2" stroke="#00ff88" stroke-width="1.5" />
    <circle cx="1395.0" cy="420.0" r="2.5" fill="#00ff88" />
    <circle cx="1395.0" cy="375.0" r="2.5" fill="#00ff88" />
    <circle cx="1395.0" cy="420.0" r="2.5" fill="#00ff88" />
    <circle cx="1395.0" cy="375.0" r="2.5" fill="#00ff88" />
    <circle cx="1410.0" cy="420.0" r="2.5" fill="#00ff88" />
    <circle cx="1410.0" cy="375.0" r="2.5" fill="#00ff88" />
    <circle cx="1410.0" cy="420.0" r="2.5" fill="#00ff88" />
    <circle cx="1410.0" cy="375.0" r="2.5" fill="#00ff88" />
  </g>
  <!-- QUADRANT 3: 3. SIDE ELEVATION VIEW (ZY PLANE) -->
  <g transform="translate(0, 0)">
    <text x="50" y="620" font-family="monospace" font-size="16" font-weight="bold" fill="#00e5ff">3. SIDE ELEVATION VIEW (ZY PLANE)</text>
    <polygon points="520.0,971.7 640.0,985.0 640.0,1000.0 520.0,1000.0" fill="#00e5ff" fill-opacity="0.2" stroke="#00e5ff" stroke-width="1.5" />
    <circle cx="520.0" cy="1000.0" r="2.5" fill="#00e5ff" />
    <circle cx="520.0" cy="985.0" r="2.5" fill="#00e5ff" />
    <circle cx="640.0" cy="1000.0" r="2.5" fill="#00e5ff" />
    <circle cx="640.0" cy="985.0" r="2.5" fill="#00e5ff" />
    <circle cx="520.0" cy="1000.0" r="2.5" fill="#00e5ff" />
    <circle cx="520.0" cy="971.7" r="2.5" fill="#00e5ff" />
    <polygon points="400.0,965.0 520.0,971.7 520.0,1000.0 400.0,1000.0" fill="#ffb703" fill-opacity="0.2" stroke="#ffb703" stroke-width="1.5" />
    <circle cx="520.0" cy="1000.0" r="2.5" fill="#ffb703" />
    <circle cx="520.0" cy="985.0" r="2.5" fill="#ffb703" />
    <circle cx="400.0" cy="1000.0" r="2.5" fill="#ffb703" />
    <circle cx="400.0" cy="965.0" r="2.5" fill="#ffb703" />
    <circle cx="520.0" cy="1000.0" r="2.5" fill="#ffb703" />
    <circle cx="520.0" cy="971.7" r="2.5" fill="#ffb703" />
    <polygon points="280.0,958.3 400.0,965.0 520.0,971.7 520.0,1000.0 280.0,1000.0" fill="#ff007f" fill-opacity="0.2" stroke="#ff007f" stroke-width="1.5" />
    <circle cx="400.0" cy="1000.0" r="2.5" fill="#ff007f" />
    <circle cx="400.0" cy="965.0" r="2.5" fill="#ff007f" />
    <circle cx="520.0" cy="1000.0" r="2.5" fill="#ff007f" />
    <circle cx="520.0" cy="971.7" r="2.5" fill="#ff007f" />
    <circle cx="280.0" cy="1000.0" r="2.5" fill="#ff007f" />
    <circle cx="280.0" cy="958.3" r="2.5" fill="#ff007f" />
    <polygon points="280.0,945.0 400.0,965.0 400.0,1000.0 280.0,1000.0" fill="#00ff88" fill-opacity="0.2" stroke="#00ff88" stroke-width="1.5" />
    <circle cx="400.0" cy="1000.0" r="2.5" fill="#00ff88" />
    <circle cx="400.0" cy="965.0" r="2.5" fill="#00ff88" />
    <circle cx="280.0" cy="1000.0" r="2.5" fill="#00ff88" />
    <circle cx="280.0" cy="945.0" r="2.5" fill="#00ff88" />
    <circle cx="280.0" cy="1000.0" r="2.5" fill="#00ff88" />
    <circle cx="280.0" cy="958.3" r="2.5" fill="#00ff88" />
    <polygon points="160.0,945.0 280.0,945.0 280.0,1000.0 160.0,1000.0" fill="#bd00ff" fill-opacity="0.2" stroke="#bd00ff" stroke-width="1.5" />
    <circle cx="280.0" cy="1000.0" r="2.5" fill="#bd00ff" />
    <circle cx="280.0" cy="945.0" r="2.5" fill="#bd00ff" />
    <circle cx="160.0" cy="1000.0" r="2.5" fill="#bd00ff" />
    <circle cx="160.0" cy="945.0" r="2.5" fill="#bd00ff" />
    <circle cx="280.0" cy="1000.0" r="2.5" fill="#bd00ff" />
    <circle cx="280.0" cy="958.3" r="2.5" fill="#bd00ff" />
    <polygon points="502.7,760.0 640.0,760.0 640.0,1000.0 502.7,1000.0" fill="#00f0ff" fill-opacity="0.2" stroke="#00f0ff" stroke-width="1.5" />
    <circle cx="631.4" cy="1000.0" r="2.5" fill="#00f0ff" />
    <circle cx="631.4" cy="760.0" r="2.5" fill="#00f0ff" />
    <circle cx="640.0" cy="1000.0" r="2.5" fill="#00f0ff" />
    <circle cx="640.0" cy="760.0" r="2.5" fill="#00f0ff" />
    <circle cx="520.0" cy="1000.0" r="2.5" fill="#00f0ff" />
    <circle cx="520.0" cy="760.0" r="2.5" fill="#00f0ff" />
    <circle cx="502.7" cy="1000.0" r="2.5" fill="#00f0ff" />
    <circle cx="502.7" cy="760.0" r="2.5" fill="#00f0ff" />
    <polygon points="160.0,760.0 297.3,760.0 297.3,1000.0 160.0,1000.0" fill="#ff6b6b" fill-opacity="0.2" stroke="#ff6b6b" stroke-width="1.5" />
    <circle cx="168.6" cy="1000.0" r="2.5" fill="#ff6b6b" />
    <circle cx="168.6" cy="760.0" r="2.5" fill="#ff6b6b" />
    <circle cx="160.0" cy="1000.0" r="2.5" fill="#ff6b6b" />
    <circle cx="160.0" cy="760.0" r="2.5" fill="#ff6b6b" />
    <circle cx="297.3" cy="1000.0" r="2.5" fill="#ff6b6b" />
    <circle cx="297.3" cy="760.0" r="2.5" fill="#ff6b6b" />
    <circle cx="280.0" cy="1000.0" r="2.5" fill="#ff6b6b" />
    <circle cx="280.0" cy="760.0" r="2.5" fill="#ff6b6b" />
    <polygon points="332.5,958.8 336.2,955.0 463.8,955.0 467.5,958.8 467.5,1000.0 332.5,1000.0" fill="#4ecdc4" fill-opacity="0.2" stroke="#4ecdc4" stroke-width="1.5" />
    <circle cx="467.5" cy="1000.0" r="2.5" fill="#4ecdc4" />
    <circle cx="467.5" cy="958.8" r="2.5" fill="#4ecdc4" />
    <circle cx="332.5" cy="1000.0" r="2.5" fill="#4ecdc4" />
    <circle cx="332.5" cy="958.8" r="2.5" fill="#4ecdc4" />
    <circle cx="463.8" cy="955.0" r="2.5" fill="#4ecdc4" />
    <circle cx="336.2" cy="955.0" r="2.5" fill="#4ecdc4" />
    <circle cx="463.8" cy="955.0" r="2.5" fill="#4ecdc4" />
    <circle cx="336.2" cy="955.0" r="2.5" fill="#4ecdc4" />
    <circle cx="467.5" cy="1000.0" r="2.5" fill="#4ecdc4" />
    <circle cx="467.5" cy="958.8" r="2.5" fill="#4ecdc4" />
    <circle cx="332.5" cy="1000.0" r="2.5" fill="#4ecdc4" />
    <circle cx="332.5" cy="958.8" r="2.5" fill="#4ecdc4" />
    <polygon points="280.0,820.0 332.5,820.0 332.5,1000.0 280.0,1000.0" fill="#00e5ff" fill-opacity="0.2" stroke="#00e5ff" stroke-width="1.5" />
    <circle cx="313.8" cy="1000.0" r="2.5" fill="#00e5ff" />
    <circle cx="313.8" cy="820.0" r="2.5" fill="#00e5ff" />
    <circle cx="280.0" cy="1000.0" r="2.5" fill="#00e5ff" />
    <circle cx="280.0" cy="820.0" r="2.5" fill="#00e5ff" />
    <circle cx="332.5" cy="1000.0" r="2.5" fill="#00e5ff" />
    <circle cx="332.5" cy="820.0" r="2.5" fill="#00e5ff" />
    <circle cx="280.0" cy="1000.0" r="2.5" fill="#00e5ff" />
    <circle cx="280.0" cy="820.0" r="2.5" fill="#00e5ff" />
    <polygon points="467.5,820.0 520.0,820.0 520.0,1000.0 467.5,1000.0" fill="#ffb703" fill-opacity="0.2" stroke="#ffb703" stroke-width="1.5" />
    <circle cx="520.0" cy="1000.0" r="2.5" fill="#ffb703" />
    <circle cx="520.0" cy="820.0" r="2.5" fill="#ffb703" />
    <circle cx="486.2" cy="1000.0" r="2.5" fill="#ffb703" />
    <circle cx="486.2" cy="820.0" r="2.5" fill="#ffb703" />
    <circle cx="520.0" cy="1000.0" r="2.5" fill="#ffb703" />
    <circle cx="520.0" cy="820.0" r="2.5" fill="#ffb703" />
    <circle cx="467.5" cy="1000.0" r="2.5" fill="#ffb703" />
    <circle cx="467.5" cy="820.0" r="2.5" fill="#ffb703" />
    <polygon points="280.0,760.0 520.0,760.0 520.0,820.0 280.0,820.0" fill="#ff007f" fill-opacity="0.2" stroke="#ff007f" stroke-width="1.5" />
    <circle cx="520.0" cy="805.0" r="2.5" fill="#ff007f" />
    <circle cx="520.0" cy="760.0" r="2.5" fill="#ff007f" />
    <circle cx="280.0" cy="805.0" r="2.5" fill="#ff007f" />
    <circle cx="280.0" cy="760.0" r="2.5" fill="#ff007f" />
    <circle cx="520.0" cy="820.0" r="2.5" fill="#ff007f" />
    <circle cx="280.0" cy="820.0" r="2.5" fill="#ff007f" />
    <circle cx="520.0" cy="820.0" r="2.5" fill="#ff007f" />
    <circle cx="520.0" cy="760.0" r="2.5" fill="#ff007f" />
    <circle cx="280.0" cy="820.0" r="2.5" fill="#ff007f" />
    <circle cx="280.0" cy="760.0" r="2.5" fill="#ff007f" />
    <polygon points="280.0,955.0 520.0,955.0 520.0,1000.0 280.0,1000.0" fill="#00ff88" fill-opacity="0.2" stroke="#00ff88" stroke-width="1.5" />
    <circle cx="520.0" cy="1000.0" r="2.5" fill="#00ff88" />
    <circle cx="520.0" cy="955.0" r="2.5" fill="#00ff88" />
    <circle cx="280.0" cy="1000.0" r="2.5" fill="#00ff88" />
    <circle cx="280.0" cy="955.0" r="2.5" fill="#00ff88" />
    <circle cx="520.0" cy="1000.0" r="2.5" fill="#00ff88" />
    <circle cx="520.0" cy="955.0" r="2.5" fill="#00ff88" />
    <circle cx="280.0" cy="1000.0" r="2.5" fill="#00ff88" />
    <circle cx="280.0" cy="955.0" r="2.5" fill="#00ff88" />
  </g>
  <!-- QUADRANT 4: 4. 3D ISOMETRIC AXONOMETRIC VIEW (30°/30°) -->
  <g transform="translate(0, 0)">
    <text x="850" y="620" font-family="monospace" font-size="16" font-weight="bold" fill="#00e5ff">4. 3D ISOMETRIC AXONOMETRIC VIEW (30°/30°)</text>
    <polygon points="914.2,994.8 992.2,862.8 1277.9,816.8 1277.9,838.0 914.2,1006.0" fill="#00e5ff" fill-opacity="0.2" stroke="#00e5ff" stroke-width="1.5" />
    <circle cx="914.2" cy="1006.0" r="2.5" fill="#00e5ff" />
    <circle cx="914.2" cy="994.8" r="2.5" fill="#00e5ff" />
    <circle cx="992.2" cy="874.0" r="2.5" fill="#00e5ff" />
    <circle cx="992.2" cy="862.8" r="2.5" fill="#00e5ff" />
    <circle cx="1277.9" cy="838.0" r="2.5" fill="#00e5ff" />
    <circle cx="1277.9" cy="816.8" r="2.5" fill="#00e5ff" />
    <polygon points="914.2,994.8 1277.9,816.8 1277.9,838.0 1018.1,1054.0 914.2,1006.0" fill="#ffb703" fill-opacity="0.2" stroke="#ffb703" stroke-width="1.5" />
    <circle cx="914.2" cy="1006.0" r="2.5" fill="#ffb703" />
    <circle cx="914.2" cy="994.8" r="2.5" fill="#ffb703" />
    <circle cx="1018.1" cy="1054.0" r="2.5" fill="#ffb703" />
    <circle cx="1018.1" cy="1027.8" r="2.5" fill="#ffb703" />
    <circle cx="1277.9" cy="838.0" r="2.5" fill="#ffb703" />
    <circle cx="1277.9" cy="816.8" r="2.5" fill="#ffb703" />
    <polygon points="1018.1,1027.8 1277.9,816.8 1485.8,902.8 1485.8,934.0 1018.1,1054.0" fill="#ff007f" fill-opacity="0.2" stroke="#ff007f" stroke-width="1.5" />
    <circle cx="1018.1" cy="1054.0" r="2.5" fill="#ff007f" />
    <circle cx="1018.1" cy="1027.8" r="2.5" fill="#ff007f" />
    <circle cx="1277.9" cy="838.0" r="2.5" fill="#ff007f" />
    <circle cx="1277.9" cy="816.8" r="2.5" fill="#ff007f" />
    <circle cx="1485.8" cy="934.0" r="2.5" fill="#ff007f" />
    <circle cx="1485.8" cy="902.8" r="2.5" fill="#ff007f" />
    <polygon points="1018.1,1027.8 1485.8,902.8 1485.8,934.0 1122.1,1102.0 1018.1,1054.0" fill="#00ff88" fill-opacity="0.2" stroke="#00ff88" stroke-width="1.5" />
    <circle cx="1018.1" cy="1054.0" r="2.5" fill="#00ff88" />
    <circle cx="1018.1" cy="1027.8" r="2.5" fill="#00ff88" />
    <circle cx="1122.1" cy="1102.0" r="2.5" fill="#00ff88" />
    <circle cx="1122.1" cy="1060.8" r="2.5" fill="#00ff88" />
    <circle cx="1485.8" cy="934.0" r="2.5" fill="#00ff88" />
    <circle cx="1485.8" cy="902.8" r="2.5" fill="#00ff88" />
    <polygon points="1122.1,1060.8 1485.8,902.8 1485.8,934.0 1407.8,1066.0 1122.1,1102.0" fill="#bd00ff" fill-opacity="0.2" stroke="#bd00ff" stroke-width="1.5" />
    <circle cx="1122.1" cy="1102.0" r="2.5" fill="#bd00ff" />
    <circle cx="1122.1" cy="1060.8" r="2.5" fill="#bd00ff" />
    <circle cx="1407.8" cy="1066.0" r="2.5" fill="#bd00ff" />
    <circle cx="1407.8" cy="1024.8" r="2.5" fill="#bd00ff" />
    <circle cx="1485.8" cy="934.0" r="2.5" fill="#bd00ff" />
    <circle cx="1485.8" cy="902.8" r="2.5" fill="#bd00ff" />
    <polygon points="986.5,703.5 992.2,694.0 1277.9,658.0 1292.9,664.9 1292.9,844.9 986.5,883.5" fill="#00f0ff" fill-opacity="0.2" stroke="#00f0ff" stroke-width="1.5" />
    <circle cx="986.5" cy="883.5" r="2.5" fill="#00f0ff" />
    <circle cx="986.5" cy="703.5" r="2.5" fill="#00f0ff" />
    <circle cx="992.2" cy="874.0" r="2.5" fill="#00f0ff" />
    <circle cx="992.2" cy="694.0" r="2.5" fill="#00f0ff" />
    <circle cx="1277.9" cy="838.0" r="2.5" fill="#00f0ff" />
    <circle cx="1277.9" cy="658.0" r="2.5" fill="#00f0ff" />
    <circle cx="1292.9" cy="844.9" r="2.5" fill="#00f0ff" />
    <circle cx="1292.9" cy="664.9" r="2.5" fill="#00f0ff" />
    <polygon points="1387.3,888.6 1470.8,747.1 1485.8,754.0 1485.8,934.0 1407.8,1066.0 1387.3,1068.6" fill="#ff6b6b" fill-opacity="0.2" stroke="#ff6b6b" stroke-width="1.5" />
    <circle cx="1387.3" cy="1068.6" r="2.5" fill="#ff6b6b" />
    <circle cx="1387.3" cy="888.6" r="2.5" fill="#ff6b6b" />
    <circle cx="1407.8" cy="1066.0" r="2.5" fill="#ff6b6b" />
    <circle cx="1407.8" cy="886.0" r="2.5" fill="#ff6b6b" />
    <circle cx="1470.8" cy="927.1" r="2.5" fill="#ff6b6b" />
    <circle cx="1470.8" cy="747.1" r="2.5" fill="#ff6b6b" />
    <circle cx="1485.8" cy="934.0" r="2.5" fill="#ff6b6b" />
    <circle cx="1485.8" cy="754.0" r="2.5" fill="#ff6b6b" />
    <polygon points="1232.5,870.1 1310.4,834.1 1427.3,888.1 1427.3,919.0 1349.4,955.0 1232.5,901.0" fill="#4ecdc4" fill-opacity="0.2" stroke="#4ecdc4" stroke-width="1.5" />
    <circle cx="1232.5" cy="901.0" r="2.5" fill="#4ecdc4" />
    <circle cx="1232.5" cy="870.1" r="2.5" fill="#4ecdc4" />
    <circle cx="1349.4" cy="955.0" r="2.5" fill="#4ecdc4" />
    <circle cx="1349.4" cy="924.1" r="2.5" fill="#4ecdc4" />
    <circle cx="1239.0" cy="867.2" r="2.5" fill="#4ecdc4" />
    <circle cx="1349.4" cy="918.2" r="2.5" fill="#4ecdc4" />
    <circle cx="1310.4" cy="834.2" r="2.5" fill="#4ecdc4" />
    <circle cx="1420.8" cy="885.2" r="2.5" fill="#4ecdc4" />
    <circle cx="1310.4" cy="865.0" r="2.5" fill="#4ecdc4" />
    <circle cx="1310.4" cy="834.1" r="2.5" fill="#4ecdc4" />
    <circle cx="1427.3" cy="919.0" r="2.5" fill="#4ecdc4" />
    <circle cx="1427.3" cy="888.1" r="2.5" fill="#4ecdc4" />
    <polygon points="1440.3,778.0 1485.8,799.0 1485.8,934.0 1472.8,940.0 1443.6,926.5 1440.3,913.0" fill="#00e5ff" fill-opacity="0.2" stroke="#00e5ff" stroke-width="1.5" />
    <circle cx="1443.6" cy="926.5" r="2.5" fill="#00e5ff" />
    <circle cx="1443.6" cy="791.5" r="2.5" fill="#00e5ff" />
    <circle cx="1472.8" cy="940.0" r="2.5" fill="#00e5ff" />
    <circle cx="1472.8" cy="805.0" r="2.5" fill="#00e5ff" />
    <circle cx="1440.3" cy="913.0" r="2.5" fill="#00e5ff" />
    <circle cx="1440.3" cy="778.0" r="2.5" fill="#00e5ff" />
    <circle cx="1485.8" cy="934.0" r="2.5" fill="#00e5ff" />
    <circle cx="1485.8" cy="799.0" r="2.5" fill="#00e5ff" />
    <polygon points="1265.0,709.0 1277.9,703.0 1323.4,724.0 1323.4,859.0 1294.2,857.5 1265.0,844.0" fill="#ffb703" fill-opacity="0.2" stroke="#ffb703" stroke-width="1.5" />
    <circle cx="1265.0" cy="844.0" r="2.5" fill="#ffb703" />
    <circle cx="1265.0" cy="709.0" r="2.5" fill="#ffb703" />
    <circle cx="1294.2" cy="857.5" r="2.5" fill="#ffb703" />
    <circle cx="1294.2" cy="722.5" r="2.5" fill="#ffb703" />
    <circle cx="1277.9" cy="838.0" r="2.5" fill="#ffb703" />
    <circle cx="1277.9" cy="703.0" r="2.5" fill="#ffb703" />
    <circle cx="1323.4" cy="859.0" r="2.5" fill="#ffb703" />
    <circle cx="1323.4" cy="724.0" r="2.5" fill="#ffb703" />
    <polygon points="1265.0,664.0 1277.9,658.0 1485.8,754.0 1485.8,799.0 1479.3,802.0 1271.4,706.0 1265.0,697.8" fill="#ff007f" fill-opacity="0.2" stroke="#ff007f" stroke-width="1.5" />
    <circle cx="1265.0" cy="697.8" r="2.5" fill="#ff007f" />
    <circle cx="1265.0" cy="664.0" r="2.5" fill="#ff007f" />
    <circle cx="1472.8" cy="793.8" r="2.5" fill="#ff007f" />
    <circle cx="1472.8" cy="760.0" r="2.5" fill="#ff007f" />
    <circle cx="1271.4" cy="706.0" r="2.5" fill="#ff007f" />
    <circle cx="1479.3" cy="802.0" r="2.5" fill="#ff007f" />
    <circle cx="1277.9" cy="703.0" r="2.5" fill="#ff007f" />
    <circle cx="1277.9" cy="658.0" r="2.5" fill="#ff007f" />
    <circle cx="1485.8" cy="799.0" r="2.5" fill="#ff007f" />
    <circle cx="1485.8" cy="754.0" r="2.5" fill="#ff007f" />
    <polygon points="1265.0,810.2 1277.9,804.2 1485.8,900.2 1485.8,934.0 1472.8,940.0 1265.0,844.0" fill="#00ff88" fill-opacity="0.2" stroke="#00ff88" stroke-width="1.5" />
    <circle cx="1265.0" cy="844.0" r="2.5" fill="#00ff88" />
    <circle cx="1265.0" cy="810.2" r="2.5" fill="#00ff88" />
    <circle cx="1472.8" cy="940.0" r="2.5" fill="#00ff88" />
    <circle cx="1472.8" cy="906.2" r="2.5" fill="#00ff88" />
    <circle cx="1277.9" cy="838.0" r="2.5" fill="#00ff88" />
    <circle cx="1277.9" cy="804.2" r="2.5" fill="#00ff88" />
    <circle cx="1485.8" cy="934.0" r="2.5" fill="#00ff88" />
    <circle cx="1485.8" cy="900.2" r="2.5" fill="#00ff88" />
  </g>
</svg>
